<svg class="w-6 h-6" width="24" height="24" viewBox="0 0 24 24" fill="none" xmlns="http://www.w3.org/2000/svg"><path d="M16.1123 10.54C16.3449 10.0898 16.8856 9.87945 17.3672 10.0693C17.8487 10.2593 18.1001 10.7817 17.9629 11.2695L17.9307 11.3672L13.8506 21.7168L13.8399 21.7422C13.6861 22.1028 13.4296 22.4108 13.1025 22.6269C12.7755 22.843 12.392 22.958 12 22.958C11.608 22.958 11.2245 22.843 10.8975 22.6269C10.6113 22.4378 10.3792 22.1783 10.2227 21.875L10.1602 21.7422L10.1494 21.7168L6.06934 11.3672L6.03712 11.2695C5.89995 10.7817 6.15135 10.2593 6.63282 10.0693C7.11446 9.87945 7.65509 10.0898 7.8877 10.54L7.93067 10.6328L12 20.956L16.0693 10.6328L16.1123 10.54Z" fill="#686583" style="fill-opacity:1;"/><path d="M16 7C16 5.93913 15.5783 4.92202 14.8281 4.17188C14.078 3.42173 13.0609 3 12 3C10.9391 3 9.92202 3.42173 9.17188 4.17188C8.42173 4.92202 8 5.93913 8 7C8 7.55228 7.55228 8 7 8C6.44772 8 6 7.55228 6 7C6 5.4087 6.63259 3.88303 7.75781 2.75781C8.88303 1.63259 10.4087 1 12 1C13.5913 1 15.117 1.63259 16.2422 2.75781C17.3674 3.88303 18 5.4087 18 7C18 7.55228 17.5523 8 17 8C16.4477 8 16 7.55228 16 7Z" fill="#686583" style="fill-opacity:1;"/><path d="M4 9C4 8.20435 4.3163 7.44152 4.87891 6.87891C5.44152 6.3163 6.20435 6 7 6C7.55228 6 8 6.44772 8 7C8 7.55228 7.55228 8 7 8C6.73478 8 6.48051 8.10543 6.29297 8.29297C6.10543 8.48051 6 8.73478 6 9L6.00488 9.09863C6.02757 9.32763 6.12883 9.54289 6.29297 9.70703C6.48051 9.89457 6.73478 10 7 10H17C17.2652 10 17.5195 9.89457 17.707 9.70703C17.8946 9.51949 18 9.26522 18 9C18 8.73478 17.8946 8.48051 17.707 8.29297C17.5429 8.12883 17.3276 8.02757 17.0986 8.00488L17 8L16.8975 7.99512C16.3933 7.94379 16 7.51768 16 7C16 6.44772 16.4477 6 17 6L17.2969 6.01465C17.9835 6.08291 18.6289 6.38671 19.1211 6.87891C19.6837 7.44152 20 8.20435 20 9C20 9.79565 19.6837 10.5585 19.1211 11.1211C18.5585 11.6837 17.7957 12 17 12H7C6.20435 12 5.44152 11.6837 4.87891 11.1211C4.38671 10.6289 4.08291 9.98351 4.01465 9.29688L4 9Z" fill="#686583" style="fill-opacity:1;"/></svg>