<svg class="w-6 h-6" width="24" height="24" viewBox="0 0 24 24" fill="none" xmlns="http://www.w3.org/2000/svg"><path d="M11.3691 13.2246C11.7619 12.9043 12.3409 12.9269 12.707 13.293C13.0731 13.6591 13.0957 14.2381 12.7754 14.6309L12.707 14.707L11.707 15.707C11.3165 16.0976 10.6835 16.0976 10.293 15.707C9.90243 15.3165 9.90243 14.6835 10.293 14.293L11.293 13.293L11.3691 13.2246Z" fill="#686583" style="fill-opacity:1;"/><path d="M12.999 17.5889C13.3639 17.1744 13.9966 17.1341 14.4111 17.499C14.8256 17.864 14.8659 18.4966 14.501 18.9111L13.251 20.3311C12.886 20.7456 12.2534 20.7858 11.8389 20.4209C11.4244 20.056 11.3841 19.4233 11.749 19.0088L12.999 17.5889Z" fill="#686583" style="fill-opacity:1;"/><path d="M17.6706 4.6599C18.1744 4.60637 18.647 4.94154 18.7536 5.44798C18.8671 5.98847 18.5206 6.51901 17.9801 6.63255L17.4606 6.7517C14.8744 7.39392 12.508 8.729 10.6188 10.6179C8.60386 12.6327 7.21864 15.1907 6.63249 17.9792L6.60612 18.0788C6.45221 18.5617 5.95454 18.8591 5.44792 18.7527C4.90765 18.6389 4.56189 18.1085 4.67546 17.5681L4.8112 16.9773C5.54123 14.0388 7.05831 11.3501 9.20476 9.20384C11.4942 6.9146 14.4005 5.34125 17.569 4.67552L17.6706 4.6599Z" fill="#686583" style="fill-opacity:1;"/><path d="M18.6367 8.31365C19.1367 8.23025 19.6284 8.53769 19.7646 9.03728C19.9097 9.56989 19.596 10.1194 19.0635 10.2648L18.7822 10.3566C18.1395 10.6023 17.5983 11.0636 17.2539 11.6662C16.8604 12.3548 16.7562 13.1715 16.9648 13.9367C17.1735 14.7019 17.6776 15.3527 18.3662 15.7463C19.0548 16.1398 19.8715 16.244 20.6367 16.0353L20.7373 16.0129C21.237 15.9299 21.729 16.2373 21.8652 16.7365C22.0105 17.2693 21.6959 17.8197 21.1631 17.965L20.9228 18.0236C19.7167 18.2892 18.4514 18.0983 17.374 17.4826C16.2249 16.8259 15.3834 15.74 15.0351 14.4631C14.6869 13.1862 14.86 11.8231 15.5166 10.674C16.1733 9.5248 17.2601 8.68339 18.5371 8.33513L18.6367 8.31365Z" fill="#686583" style="fill-opacity:1;"/><path d="M16.2414 1.01488C16.5022 1.04654 16.7548 1.12896 16.9836 1.25804C17.2124 1.3871 17.4135 1.56007 17.5754 1.76683C17.7374 1.97367 17.8565 2.21101 17.927 2.4641H17.928L22.928 20.4641H22.927C23.022 20.8052 23.0256 21.1655 22.9358 21.508C22.8458 21.851 22.666 22.1645 22.4153 22.4153C22.1645 22.666 21.851 22.8458 21.508 22.9358C21.1655 23.0256 20.8052 23.022 20.4641 22.927V22.928L2.4641 17.928V17.927C2.21101 17.8565 1.97367 17.7374 1.76683 17.5754C1.56007 17.4135 1.3871 17.2124 1.25804 16.9836C1.12896 16.7548 1.04654 16.5022 1.01488 16.2414C0.983257 15.9807 1.00292 15.7161 1.07347 15.4631C2.02796 12.0276 3.85493 8.89749 6.37621 6.37621C8.89743 3.85499 12.0277 2.02895 15.4631 1.07445V1.07347C15.7161 1.00292 15.9807 0.983257 16.2414 1.01488ZM15.4211 3.17113C12.5447 4.07108 9.92566 5.65489 7.79027 7.79027C5.51264 10.0679 3.86235 12.8957 3.00023 15.9993V16.0002H2.99926L20.9993 21.0002L21.0012 21.0012L21.0002 20.9993L16.0002 3.00023H15.9993L15.4211 3.17113Z" fill="#686583" style="fill-opacity:1;"/></svg>